<svg width="152.086273" height="217.707092" viewBox="0 0 152.086 217.707" fill="none" xmlns="http://www.w3.org/2000/svg" xmlns:xlink="http://www.w3.org/1999/xlink">
	<desc>
			Created with Pixso.
	</desc>
	<path id="path" d="M73.1836 57.3004C72.4812 57.5846 72.1802 57.774 72.1802 57.8687C72.1802 60.0483 72.2805 62.6049 72.6819 65.636C73.0832 69.1407 73.4846 71.6982 73.9863 73.4032L76.0933 73.5926L78.1001 73.4032C78.6017 71.6982 79.1034 69.1407 79.5048 65.636C79.8058 62.6049 80.0065 60.0483 80.0065 57.8687C80.0065 57.774 79.6051 57.5846 78.9028 57.3004C77.9997 57.0163 77.0967 56.9215 76.0933 56.8268C75.09 56.9215 74.0866 57.0163 73.1836 57.3004Z" fill-rule="nonzero" fill="#000000"/>
	<path id="path" d="M76.0933 55.6823C77.498 55.6823 78.8024 55.9665 79.8058 56.4401C79.7054 50.7568 78.4011 47.6309 76.0933 47.1573C73.6852 47.6309 72.4812 50.7568 72.2805 56.4401C73.2839 55.9665 74.5883 55.6823 76.0933 55.6823Z" fill-rule="nonzero" fill="#000000"/>
	<path id="path" d="M75.2906 6.2301L76.7957 6.2301" stroke="#000000" stroke-width="0.771047" stroke-linejoin="round" stroke-linecap="round"/>
	<path id="path" d="M77.5984 43.531L79.8058 43.531" stroke="#000000" stroke-width="0.771047" stroke-linejoin="round" stroke-linecap="round"/>
	<path id="path" d="M79.8058 46.6752C79.8058 46.9603 79.7054 47.1488 79.5048 47.3383C79.3041 47.5277 79.0031 47.6224 78.8024 47.6224L78.6017 47.6224C78.3007 47.6224 78.1001 47.5277 77.799 47.3383C77.6987 47.1488 77.5984 46.9603 77.5984 46.6752L77.5984 43.5494L77.5984 42.8863C77.5984 42.6978 77.6987 42.4127 77.799 42.2242C78.1001 42.0348 78.3007 41.9391 78.6017 41.9391L78.8024 41.9391C79.0031 41.9391 79.3041 42.0348 79.5048 42.2242C79.7054 42.4136 79.8058 42.6978 79.8058 42.8863L79.8058 43.5494L79.8058 46.6752Z" stroke="#000000" stroke-width="0.771047" stroke-linejoin="round"/>
	<path id="path" d="M70.0731 39.39C71.5782 38.8217 73.5849 38.4428 76.0933 38.4428" stroke="#000000" stroke-width="0.771047" stroke-linejoin="round" stroke-linecap="round"/>
	<path id="path" d="M82.1135 39.39C80.6085 38.8217 78.6017 38.4428 76.0933 38.4428" stroke="#000000" stroke-width="0.771047" stroke-linejoin="round" stroke-linecap="round"/>
	<path id="path" d="M82.2139 40.9283C80.6085 40.3599 78.6017 39.981 76.0933 39.981" stroke="#000000" stroke-width="0.771047" stroke-linejoin="round" stroke-linecap="round"/>
	<path id="path" d="M83.1169 65.4657L82.5149 67.0759C81.8125 69.444 81.4112 72.1909 81.1102 75.3168C80.7088 79.0109 80.6085 84.9784 80.5081 93.314" stroke="#000000" stroke-width="0.771047" stroke-linejoin="round" stroke-linecap="round"/>
	<path id="path" d="M87.1304 88.2054C87.03 88.5843 86.9297 88.679 86.6287 88.679L84.3209 88.679C83.9196 88.679 83.8192 88.5843 83.8192 88.2054L83.8192 84.3217C83.8192 84.0376 83.9196 83.8481 84.3209 83.8481L86.6287 83.8481C86.9297 83.8481 87.03 84.0376 87.1304 84.3217L87.1304 88.2054Z" stroke="#000000" stroke-width="0.771047" stroke-linejoin="round"/>
	<path id="path" d="M83.8192 100.77L85.3243 100.77L85.3243 92.9076L83.8192 92.9076L83.8192 100.77Z" stroke="#000000" stroke-width="0.771047" stroke-linejoin="round"/>
	<path id="path" d="M105.191 104.605L103.887 104.889L95.96 95.9854L96.9633 95.1329" stroke="#000000" stroke-width="0.771047" stroke-linejoin="round" stroke-linecap="round"/>
	<path id="path" d="M92.6489 116.876C92.8495 106.362 92.9499 100.015 92.9499 97.7429C92.9499 95.4706 92.8496 93.0059 92.5485 90.1642" stroke="#000000" stroke-width="0.771047" stroke-linejoin="round" stroke-linecap="round"/>
	<path id="path" d="M69.0697 65.4657L69.6718 67.075C70.2738 69.4431 70.7755 72.19 71.0765 75.3158C71.3775 79.01 71.5782 84.9775 71.5782 93.313" stroke="#000000" stroke-width="0.771047" stroke-linejoin="round" stroke-linecap="round"/>
	<path id="path" d="M145.025 121.043L145.025 124.549" stroke="#000000" stroke-width="0.771047" stroke-linejoin="round" stroke-linecap="round"/>
	<path id="path" d="M128.971 142.987L129.071 149.998" stroke="#000000" stroke-width="0.771047" stroke-linejoin="round" stroke-linecap="round"/>
	<path id="path" d="M145.025 133.359L145.025 138.285" stroke="#000000" stroke-width="0.771047" stroke-linejoin="round" stroke-linecap="round"/>
	<path id="path" d="M128.971 142.865L145.025 133.393" stroke="#000000" stroke-width="0.771047" stroke-linejoin="round" stroke-linecap="round"/>
	<path id="path" d="M145.025 124.638L145.025 133.257" stroke="#000000" stroke-width="0.771047" stroke-linejoin="round" stroke-linecap="round"/>
	<path id="path" d="M100.776 142.696C100.776 140.707 100.776 138.529 100.876 136.35" stroke="#000000" stroke-width="0.771047" stroke-linejoin="round" stroke-linecap="round"/>
	<path id="path" d="M101.579 184.3L98.8698 162.229C98.6691 161.944 98.4684 161.851 98.1674 161.944C97.8664 162.038 97.6657 162.323 97.6657 162.703L97.6657 175.775" stroke="#000000" stroke-width="0.771047" stroke-linejoin="round" stroke-linecap="round"/>
	<path id="path" d="M101.278 170.066C101.077 168.172 100.876 164.762 100.876 159.836" stroke="#000000" stroke-width="0.771047" stroke-linejoin="round" stroke-linecap="round"/>
	<path id="path" d="M75.2906 180.717L76.7957 180.717" stroke="#000000" stroke-width="0.771047" stroke-linejoin="round" stroke-linecap="round"/>
	<path id="path" d="M88.6354 194.746L76.6953 194.746C76.595 190.009 76.595 185.368 76.7957 180.821" stroke="#000000" stroke-width="0.771047" stroke-linejoin="round" stroke-linecap="round"/>
	<path id="path" d="M77.197 200.618L88.0334 200.618" stroke="#000000" stroke-width="0.771047" stroke-linejoin="round" stroke-linecap="round"/>
	<path id="path" d="M76.7957 197.157L88.4347 197.157" stroke="#000000" stroke-width="0.771047" stroke-linejoin="round" stroke-linecap="round"/>
	<path id="path" d="M90.2408 171.183C89.6388 173.646 89.3378 176.771 89.3378 180.371L89.3378 194.674" stroke="#000000" stroke-width="0.771047" stroke-linejoin="round" stroke-linecap="round"/>
	<path id="path" d="M63.4509 194.746L75.4913 194.746C75.4913 190.009 75.4913 185.368 75.2906 180.821" stroke="#000000" stroke-width="0.771047" stroke-linejoin="round" stroke-linecap="round"/>
	<path id="path" d="M100.977 186.948L101.579 184.485" stroke="#000000" stroke-width="0.771047" stroke-linejoin="round" stroke-linecap="round"/>
	<path id="path" d="M97.6657 193.226L99.2711 194.647" stroke="#000000" stroke-width="0.771047" stroke-linejoin="round" stroke-linecap="round"/>
	<path id="path" d="M94.1539 194.273L97.5654 194.273" stroke="#000000" stroke-width="0.771047" stroke-linejoin="round" stroke-linecap="round"/>
	<path id="path" d="M97.5654 194.266L97.6657 193.223" stroke="#000000" stroke-width="0.771047" stroke-linejoin="round" stroke-linecap="round"/>
	<path id="path" d="M97.5654 194.296L98.2677 197.42L99.2711 194.674" stroke="#000000" stroke-width="0.771047" stroke-linejoin="round" stroke-linecap="round"/>
	<path id="path" d="M100.475 191.801L100.475 195.686" stroke="#000000" stroke-width="0.771047" stroke-linejoin="round" stroke-linecap="round"/>
	<path id="path" d="M100.475 195.635C100.776 196.203 101.177 195.635 101.88 193.835C102.482 192.129 102.382 189.004 101.579 184.552" stroke="#000000" stroke-width="0.771047" stroke-linejoin="round" stroke-linecap="round"/>
	<path id="path" d="M99.2711 194.665L100.475 195.708" stroke="#000000" stroke-width="0.771047" stroke-linejoin="round" stroke-linecap="round"/>
	<path id="path" d="M97.6657 185.772L97.6657 193.16" stroke="#000000" stroke-width="0.771047" stroke-linejoin="round" stroke-linecap="round"/>
	<path id="path" d="M100.475 191.738L100.977 187.002" stroke="#000000" stroke-width="0.771047" stroke-linejoin="round" stroke-linecap="round"/>
	<path id="path" d="M89.6388 210.989L94.1539 210.989L94.1539 180.489C94.2543 177.079 93.9533 173.859 93.2509 170.828" stroke="#000000" stroke-width="0.771047" stroke-linejoin="round" stroke-linecap="round"/>
	<path id="path" d="M97.6657 185.761L100.475 191.729" stroke="#000000" stroke-width="0.771047" stroke-linejoin="round" stroke-linecap="round"/>
	<path id="path" d="M97.6657 175.887L97.6657 185.644" stroke="#000000" stroke-width="0.771047" stroke-linejoin="round" stroke-linecap="round"/>
	<path id="path" d="M75.2906 180.563C75.0899 173.364 74.6886 166.544 73.8859 159.914" stroke="#000000" stroke-width="0.771047" stroke-linejoin="round" stroke-linecap="round"/>
	<path id="path" d="M78.2004 159.914C77.498 166.544 76.9964 173.364 76.7957 180.563" stroke="#000000" stroke-width="0.771047" stroke-linejoin="round" stroke-linecap="round"/>
	<path id="path" d="M87.632 159.434C88.5351 165.78 89.1371 172.695 89.3378 180.178" stroke="#000000" stroke-width="0.771047" stroke-linejoin="round" stroke-linecap="round"/>
	<path id="path" d="M97.6657 175.897L100.977 186.884" stroke="#000000" stroke-width="0.771047" stroke-linejoin="round" stroke-linecap="round"/>
	<path id="path" d="M100.776 142.609L145.025 124.708" stroke="#000000" stroke-width="0.771047" stroke-linejoin="round" stroke-linecap="round"/>
	<path id="path" d="M100.876 159.636L128.971 143.06" stroke="#000000" stroke-width="0.771047" stroke-linejoin="round" stroke-linecap="round"/>
	<path id="path" d="M92.6489 120.641C90.2408 127.556 89.3378 140.817 89.9398 160.424" stroke="#000000" stroke-width="0.771047" stroke-linejoin="round" stroke-linecap="round"/>
	<path id="path" d="M100.876 159.635C100.776 155.183 100.776 149.689 100.776 142.869" stroke="#000000" stroke-width="0.771047" stroke-linejoin="round" stroke-linecap="round"/>
	<path id="path" d="M64.1533 200.618L74.9896 200.618" stroke="#000000" stroke-width="0.771047" stroke-linejoin="round" stroke-linecap="round"/>
	<path id="path" d="M63.7519 197.157L75.2906 197.157" stroke="#000000" stroke-width="0.771047" stroke-linejoin="round" stroke-linecap="round"/>
	<path id="path" d="M79.3041 71.0551L79.3041 126.467" stroke="#000000" stroke-width="0.771047" stroke-linejoin="round" stroke-linecap="round"/>
	<path id="path" d="M72.7822 71.0551L72.7822 126.467" stroke="#000000" stroke-width="0.771047" stroke-linejoin="round" stroke-linecap="round"/>
	<path id="path" d="M69.9728 40.9283C71.4778 40.3599 73.5849 39.981 76.0933 39.981" stroke="#000000" stroke-width="0.771047" stroke-linejoin="round" stroke-linecap="round"/>
	<path id="path" d="M57.9324 194.328L57.9324 201.714" stroke="#000000" stroke-width="0.771047" stroke-linejoin="round" stroke-linecap="round"/>
	<path id="path" d="M69.0697 87.1165L68.6684 79.0651C68.0664 78.8756 67.7654 79.3492 67.665 80.5806L67.665 87.1165" stroke="#000000" stroke-width="0.771047" stroke-linejoin="round" stroke-linecap="round"/>
	<path id="path" d="M46.9957 104.605L48.3 104.889L56.1263 95.9854L55.2233 95.1329" stroke="#000000" stroke-width="0.771047" stroke-linejoin="round" stroke-linecap="round"/>
	<path id="path" d="M67.665 87.1769L69.0697 87.1769" stroke="#000000" stroke-width="0.771047" stroke-linejoin="round" stroke-linecap="round"/>
	<path id="path" d="M67.665 95.1859L67.665 99.1642L69.6718 99.1642L69.4711 95.3753" stroke="#000000" stroke-width="0.771047" stroke-linejoin="round" stroke-linecap="round"/>
	<path id="path" d="M67.665 95.1576L69.4711 95.347" stroke="#000000" stroke-width="0.771047" stroke-linejoin="round" stroke-linecap="round"/>
	<path id="path" d="M67.665 87.2356L67.665 95.0975" stroke="#000000" stroke-width="0.771047" stroke-linejoin="round" stroke-linecap="round"/>
	<path id="path" d="M59.4374 116.876C59.3371 106.362 59.2367 100.015 59.2367 97.7429C59.1364 95.4696 59.3371 93.0059 59.6381 90.1642" stroke="#000000" stroke-width="0.771047" stroke-linejoin="round" stroke-linecap="round"/>
	<path id="path" d="M69.0698 87.237L69.4711 95.2883" stroke="#000000" stroke-width="0.771047" stroke-linejoin="round" stroke-linecap="round"/>
	<path id="path" d="M51.3102 136.35L51.3102 142.696" stroke="#000000" stroke-width="0.771047" stroke-linejoin="round" stroke-linecap="round"/>
	<path id="path" d="M7.16199 121.043L7.16199 124.549" stroke="#000000" stroke-width="0.771047" stroke-linejoin="round" stroke-linecap="round"/>
	<path id="path" d="M7.06165 133.359L7.06165 138.285" stroke="#000000" stroke-width="0.771047" stroke-linejoin="round" stroke-linecap="round"/>
	<path id="path" d="M23.1155 149.998L23.2159 142.987" stroke="#000000" stroke-width="0.771047" stroke-linejoin="round" stroke-linecap="round"/>
	<path id="path" d="M7.06165 133.257L7.16199 124.638" stroke="#000000" stroke-width="0.771047" stroke-linejoin="round" stroke-linecap="round"/>
	<path id="path" d="M7.06166 133.393L23.2159 142.865" stroke="#000000" stroke-width="0.771047" stroke-linejoin="round" stroke-linecap="round"/>
	<path id="path" d="M50.5075 184.3L53.3169 162.229C53.4172 161.944 53.6179 161.851 54.0192 161.944C54.3202 162.04 54.4206 162.323 54.4206 162.703L54.4206 175.775" stroke="#000000" stroke-width="0.771047" stroke-linejoin="round" stroke-linecap="round"/>
	<path id="path" d="M50.8085 170.066C51.1095 168.172 51.2098 164.762 51.3101 159.836" stroke="#000000" stroke-width="0.771047" stroke-linejoin="round" stroke-linecap="round"/>
	<path id="path" d="M50.5075 184.485L51.2098 186.948" stroke="#000000" stroke-width="0.771047" stroke-linejoin="round" stroke-linecap="round"/>
	<path id="path" d="M52.8152 194.647L54.4206 193.226" stroke="#000000" stroke-width="0.771047" stroke-linejoin="round" stroke-linecap="round"/>
	<path id="path" d="M51.6112 191.801L51.6112 195.686" stroke="#000000" stroke-width="0.771047" stroke-linejoin="round" stroke-linecap="round"/>
	<path id="path" d="M51.6112 195.708L52.8152 194.665" stroke="#000000" stroke-width="0.771047" stroke-linejoin="round" stroke-linecap="round"/>
	<path id="path" d="M51.6112 195.635C51.3102 196.203 50.9088 195.635 50.4071 194.023C49.9054 192.319 49.9054 189.099 50.5075 184.552" stroke="#000000" stroke-width="0.771047" stroke-linejoin="round" stroke-linecap="round"/>
	<path id="path" d="M54.5209 194.296L53.8186 197.42L52.8152 194.674" stroke="#000000" stroke-width="0.771047" stroke-linejoin="round" stroke-linecap="round"/>
	<path id="path" d="M54.4206 193.223L54.5209 194.266" stroke="#000000" stroke-width="0.771047" stroke-linejoin="round" stroke-linecap="round"/>
	<path id="path" d="M54.5209 194.273L57.9324 194.273" stroke="#000000" stroke-width="0.771047" stroke-linejoin="round" stroke-linecap="round"/>
	<path id="path" d="M54.4206 185.772L54.4206 193.16" stroke="#000000" stroke-width="0.771047" stroke-linejoin="round" stroke-linecap="round"/>
	<path id="path" d="M51.6112 191.729L54.4206 185.761" stroke="#000000" stroke-width="0.771047" stroke-linejoin="round" stroke-linecap="round"/>
	<path id="path" d="M62.8489 180.44L62.8489 194.742" stroke="#000000" stroke-width="0.771047" stroke-linejoin="round" stroke-linecap="round"/>
	<path id="path" d="M51.2098 187.002L51.6112 191.738" stroke="#000000" stroke-width="0.771047" stroke-linejoin="round" stroke-linecap="round"/>
	<path id="path" d="M57.9324 194.099L57.9324 180.364C57.9324 176.953 58.2334 173.734 58.8354 170.703" stroke="#000000" stroke-width="0.771047" stroke-linejoin="round" stroke-linecap="round"/>
	<path id="path" d="M51.2098 186.884L54.4206 175.897" stroke="#000000" stroke-width="0.771047" stroke-linejoin="round" stroke-linecap="round"/>
	<path id="path" d="M61.9458 171.076C62.4475 173.539 62.7485 176.664 62.8489 180.264" stroke="#000000" stroke-width="0.771047" stroke-linejoin="round" stroke-linecap="round"/>
	<path id="path" d="M54.4206 175.887L54.4206 185.644" stroke="#000000" stroke-width="0.771047" stroke-linejoin="round" stroke-linecap="round"/>
	<path id="path" d="M64.5546 159.434C63.5512 165.78 62.9492 172.695 62.8489 180.178" stroke="#000000" stroke-width="0.771047" stroke-linejoin="round" stroke-linecap="round"/>
	<path id="path" d="M51.3101 159.635C51.4105 155.183 51.4105 149.689 51.3101 142.869" stroke="#000000" stroke-width="0.771047" stroke-linejoin="round" stroke-linecap="round"/>
	<path id="path" d="M23.2159 143.06L51.3101 159.636" stroke="#000000" stroke-width="0.771047" stroke-linejoin="round" stroke-linecap="round"/>
	<path id="path" d="M59.4374 120.641C61.9458 127.556 62.8489 140.817 62.1465 160.424" stroke="#000000" stroke-width="0.771047" stroke-linejoin="round" stroke-linecap="round"/>
	<path id="path" d="M7.16199 124.708L51.3102 142.609" stroke="#000000" stroke-width="0.771047" stroke-linejoin="round" stroke-linecap="round"/>
	<path id="path" d="M57.9324 202.733L62.7485 202.733" stroke="#000000" stroke-width="0.771047" stroke-linejoin="round" stroke-linecap="round"/>
	<path id="path" d="M89.4381 201.771L94.1539 201.771" stroke="#000000" stroke-width="0.771047" stroke-linejoin="round" stroke-linecap="round"/>
	<path id="path" d="M70.0731 40.0693L70.0731 40.5429C70.0731 41.1113 69.9728 41.5849 69.9728 42.0585L69.9728 42.248C69.8724 43.1952 69.7721 44.2381 69.7721 45.2791C69.5714 48.3102 69.2704 55.2249 69.0698 66.0232C68.1667 67.9176 66.5613 71.0435 64.1533 75.4954C62.1465 79.6622 60.8421 83.2617 60.2401 86.199C60.0395 87.6198 59.7384 88.945 59.6381 90.3658L55.2233 95.3871L46.9957 104.859L44.7883 107.417L46.9957 113.384L59.4374 117.077L59.4374 120.298L53.6179 133.749C53.1162 135.074 52.4139 135.832 51.3102 136.021C50.7081 136.021 50.1061 135.926 49.3034 135.643L7.162 120.961L6.66032 120.772C3.34921 119.635 1.64348 120.677 1.54315 123.992C1.74382 128.443 3.14853 132.801 6.0583 137.348L7.06166 138.011L23.1155 149.567L50.8085 169.365L42.5809 202.422L44.9889 208.769L57.5441 209.871L57.9334 200.524L58.0387 201.576C58.4401 203.376 59.1424 205.982 60.3465 207.213C61.6509 205.982 62.4536 203.282 62.6542 201.576C62.6542 201.576 62.6964 201.156 62.7495 200.528C62.8027 199.9 62.8499 193.709 62.8499 193.709L63.4519 193.709L63.7529 195.982L64.1543 199.392L64.5556 202.896L74.6896 202.896L74.9906 199.392L75.2916 195.982L75.4923 193.709L76.6964 193.709L76.7967 195.982L77.198 199.392L77.3987 202.896L87.5327 202.896L88.0344 199.392L88.4357 195.982L88.6364 193.709L89.3378 193.709L89.4381 200.528L89.6388 209.905C89.7391 211.611 90.5418 214.311 91.9465 215.542C93.0502 214.311 93.8529 211.705 94.1539 209.905L107.198 208.769L109.606 202.422L101.278 169.365L129.071 149.569L145.025 138.013L146.028 137.35C148.837 132.803 150.342 128.446 150.543 123.994C150.443 120.679 148.737 119.636 145.426 120.774L145.025 120.963L102.783 135.645C102.081 135.929 101.378 136.023 100.876 136.023C99.7728 135.834 98.9701 135.076 98.5687 133.75L92.6489 120.3L92.6489 117.079L105.191 113.386L107.398 107.419L105.191 104.861L96.9633 95.3889L92.5485 90.3668C92.3479 88.946 92.1472 87.6198 91.8462 86.199C91.2442 83.2617 89.9398 79.6632 87.933 75.4954C85.6253 71.0435 84.0199 67.9176 83.1169 66.0232C82.8158 55.2249 82.5149 48.3102 82.4145 45.2791C82.3142 44.2371 82.2138 43.1952 82.2138 42.2479L82.2138 42.0585C82.1135 41.5849 82.1135 41.1113 82.1135 40.5429C82.0132 40.4482 82.0132 40.2588 82.0132 40.0693C81.1101 28.6079 79.1034 21.5985 76.0933 19.041C72.9829 21.5985 71.0765 28.6089 70.0731 40.0693Z" stroke="#000000" stroke-width="3.084188" stroke-linejoin="round"/>
	<path id="path" d="M76.0933 1.54208L76.0933 17.4554" stroke="#000000" stroke-width="3.084188" stroke-linejoin="round" stroke-linecap="round"/>
	<defs/>
</svg>
