<?xml version="1.1" encoding="UTF-8"?>
<svg width="467.97" height="705.09" enable-background="new 0 0 149.5 225.251" viewBox="0 0 149.5 225.251" xmlns="http://www.w3.org/2000/svg">
 <switch transform="matrix(.98529 0 0 .98529 -.00033126 0)">
  <g>
   <path d="m71.9,58.5c-.7.3-1,.5-1,.6 0,2.301.1,5 .5,8.2 .4,3.7.8,6.4 1.3,8.2l2.1.2 2-.2c.5-1.8 1-4.5 1.4-8.2 .3-3.2.5-5.899.5-8.2 0-.1-.4-.3-1.1-.6-.9-.3-1.8-.4-2.8-.5-1,.1-2,.2-2.9.5z"/>
   <path d="m74.8,57c1.4,0 2.7.3 3.7.8-.1-6-1.4-9.3-3.7-9.8-2.4.5-3.6,3.8-3.8,9.8 1-.5 2.3-.8 3.8-.8z"/>
   <path d="m74 5.5h1.5" fill="none" stroke="#000" stroke-linecap="round" stroke-linejoin="round" stroke-width=".25"/>
   <path d="m76.3 44.3h2.2" fill="none" stroke="#000" stroke-linecap="round" stroke-linejoin="round" stroke-width=".25"/>
   <path d="m78.5,44.3v3.3c0,.301-.1.5-.3.7s-.5.3-.7.3h-.2c-.3,0-.5-.1-.8-.3-.1-.2-.2-.399-.2-.7v-3.3-.7c0-.199.1-.5.2-.699 .3-.2.5-.301.8-.301h.2c.2,0 .5.101.7.301s.3.5.3.699v.7" fill="none" stroke="#000" stroke-linecap="round" stroke-linejoin="round" stroke-width=".25"/>
   <path d="m68.8,40c1.5-.6 3.5-1 6-1" fill="none" stroke="#000" stroke-linecap="round" stroke-linejoin="round" stroke-width=".25"/>
   <path d="m80.8,40c-1.5-.6-3.5-1-6-1" fill="none" stroke="#000" stroke-linecap="round" stroke-linejoin="round" stroke-width=".25"/>
   <path d="m80.9,41.6c-1.6-.6-3.6-1-6.1-1" fill="none" stroke="#000" stroke-linecap="round" stroke-linejoin="round" stroke-width=".25"/>
   <path d="m81.8,66.9-.6,1.7c-.7,2.5-1.1,5.4-1.4,8.7-.4,3.9-.5,10.2-.6,19" fill="none" stroke="#000" stroke-linecap="round" stroke-linejoin="round" stroke-width=".25"/>
   <path d="m85.8,86.7v4.1c-.1.4-.2.5-.5.5h-2.3c-.4,0-.5-.1-.5-.5v-4.1c0-.3.1-.5.5-.5h2.3c.3,0 .4.2.5.5" fill="none" stroke="#000" stroke-linecap="round" stroke-linejoin="round" stroke-width=".25"/>
   <path d="m82.5 95.6v8.3h1.5v-8.3h-1.5" fill="none" stroke="#000" stroke-linecap="round" stroke-linejoin="round" stroke-width=".25"/>
   <path d="m103.8,107.9-1.3.3-7.9-9.4 1-.9" fill="none" stroke="#000" stroke-linecap="round" stroke-linejoin="round" stroke-width=".25"/>
   <path d="m91.3,120.8c.2-11.1.3-17.8.3-20.199s-.1-5.001-.4-8.001" fill="none" stroke="#000" stroke-linecap="round" stroke-linejoin="round" stroke-width=".25"/>
   <path d="m67.8,66.9 .6,1.699c.6,2.5 1.1,5.4 1.4,8.7 .3,3.9.5,10.2.5,19" fill="none" stroke="#000" stroke-linecap="round" stroke-linejoin="round" stroke-width=".25"/>
   <path d="m143.5 124.9v3.701" fill="none" stroke="#000" stroke-linecap="round" stroke-linejoin="round" stroke-width=".25"/>
   <path d="m127.6 155.1-0.1-7.401" fill="none" stroke="#000" stroke-linecap="round" stroke-linejoin="round" stroke-width=".25"/>
   <path d="m143.5 137.7v5.2" fill="none" stroke="#000" stroke-linecap="round" stroke-linejoin="round" stroke-width=".25"/>
   <path d="m127.5 147.7 16-10" fill="none" stroke="#000" stroke-linecap="round" stroke-linejoin="round" stroke-width=".25"/>
   <path d="m143.5 128.6v9.099" fill="none" stroke="#000" stroke-linecap="round" stroke-linejoin="round" stroke-width=".25"/>
   <path d="m99.4,147.5c0-2.1 0-4.399.1-6.7" fill="none" stroke="#000" stroke-linecap="round" stroke-linejoin="round" stroke-width=".25"/>
   <path d="m100.2,190.9-2.7-23.3c-.2-.301-.4-.4-.7-.301s-.5.4-.5.801v13.8" fill="none" stroke="#000" stroke-linecap="round" stroke-linejoin="round" stroke-width=".25"/>
   <path d="m99.9,176c-.2-2-.4-5.6-.4-10.8" fill="none" stroke="#000" stroke-linecap="round" stroke-linejoin="round" stroke-width=".25"/>
   <path d="m75.5 187h-1.5" fill="none" stroke="#000" stroke-linecap="round" stroke-linejoin="round" stroke-width=".25"/>
   <path d="m87.3,201.7h-11.9c-.1-5-.1-9.9.1-14.7" fill="none" stroke="#000" stroke-linecap="round" stroke-linejoin="round" stroke-width=".25"/>
   <path d="m75.9 207.7h10.8" fill="none" stroke="#000" stroke-linecap="round" stroke-linejoin="round" stroke-width=".25"/>
   <path d="m87.1 204.1h-11.6" fill="none" stroke="#000" stroke-linecap="round" stroke-linejoin="round" stroke-width=".25"/>
   <path d="m88.9,176.9c-.6,2.6-.9,5.899-.9,9.7v15.1" fill="none" stroke="#000" stroke-linecap="round" stroke-linejoin="round" stroke-width=".25"/>
   <path d="m62.2,201.7h12c0-5 0-9.9-.2-14.7" fill="none" stroke="#000" stroke-linecap="round" stroke-linejoin="round" stroke-width=".25"/>
   <path d="m99.6 193.5 0.6-2.6" fill="none" stroke="#000" stroke-linecap="round" stroke-linejoin="round" stroke-width=".25"/>
   <path d="m97.9 201.5-1.6-1.5" fill="none" stroke="#000" stroke-linecap="round" stroke-linejoin="round" stroke-width=".25"/>
   <path d="m96.2 201.1h-3.4" fill="none" stroke="#000" stroke-linecap="round" stroke-linejoin="round" stroke-width=".25"/>
   <path d="m96.3,200-.10001,1.101" fill="none" stroke="#000" stroke-linecap="round" stroke-linejoin="round" stroke-width=".25"/>
   <path d="m96.2 201.1 0.7 3.298 1-2.899" fill="none" stroke="#000" stroke-linecap="round" stroke-linejoin="round" stroke-width=".25"/>
   <path d="m99.1 202.6v-4.101" fill="none" stroke="#000" stroke-linecap="round" stroke-linejoin="round" stroke-width=".25"/>
   <path d="m99.1,202.601c.3.6.7,0 1.4-1.9 .6-1.801.5-5.1-.3-9.8" fill="none" stroke="#000" stroke-linecap="round" stroke-linejoin="round" stroke-width=".25"/>
   <path d="m97.9 201.5 1.2 1.101" fill="none" stroke="#000" stroke-linecap="round" stroke-linejoin="round" stroke-width=".25"/>
   <path d="m96.3 192.2v7.8" fill="none" stroke="#000" stroke-linecap="round" stroke-linejoin="round" stroke-width=".25"/>
   <path d="m99.1,198.5 .5-5" fill="none" stroke="#000" stroke-linecap="round" stroke-linejoin="round" stroke-width=".25"/>
   <path d="m88.3 218.8h4.5v-32.199c0.1-3.601-0.2-7-0.9-10.2" fill="none" stroke="#000" stroke-linecap="round" stroke-linejoin="round" stroke-width=".25"/>
   <path d="m96.3 192.2 2.8 6.3" fill="none" stroke="#000" stroke-linecap="round" stroke-linejoin="round" stroke-width=".25"/>
   <path d="m96.3 181.9v10.3" fill="none" stroke="#000" stroke-linecap="round" stroke-linejoin="round" stroke-width=".25"/>
   <path d="m74,187c-.2-7.6-.6-14.8-1.4-21.8" fill="none" stroke="#000" stroke-linecap="round" stroke-linejoin="round" stroke-width=".25"/>
   <path d="m76.9,165.2c-.7,7-1.2,14.2-1.4,21.8" fill="none" stroke="#000" stroke-linecap="round" stroke-linejoin="round" stroke-width=".25"/>
   <path d="m86.3,164.7c.9,6.7 1.5,14 1.7,21.9" fill="none" stroke="#000" stroke-linecap="round" stroke-linejoin="round" stroke-width=".25"/>
   <path d="m96.3 181.9 3.3 11.6" fill="none" stroke="#000" stroke-linecap="round" stroke-linejoin="round" stroke-width=".25"/>
   <path d="m143.5 128.6-44.1 18.899" fill="none" stroke="#000" stroke-linecap="round" stroke-linejoin="round" stroke-width=".25"/>
   <path d="m99.5 165.2 28-17.5" fill="none" stroke="#000" stroke-linecap="round" stroke-linejoin="round" stroke-width=".25"/>
   <path d="m91.3 124.2c-2.4 7.3-3.3 21.3-2.7 42" fill="none" stroke="#000" stroke-linecap="round" stroke-linejoin="round" stroke-width=".25"/>
   <path d="m99.5,165.2c-.1-4.7-.1-10.5-.1-17.7" fill="none" stroke="#000" stroke-linecap="round" stroke-linejoin="round" stroke-width=".25"/>
   <path d="m73.7 207.7h-10.8" fill="none" stroke="#000" stroke-linecap="round" stroke-linejoin="round" stroke-width=".25"/>
   <path d="m62.5 204.1h11.5" fill="none" stroke="#000" stroke-linecap="round" stroke-linejoin="round" stroke-width=".25"/>
   <path d="m78 72.5v58.5" fill="none" stroke="#000" stroke-linecap="round" stroke-linejoin="round" stroke-width=".25"/>
   <path d="m71.5 72.5v58.5" fill="none" stroke="#000" stroke-linecap="round" stroke-linejoin="round" stroke-width=".25"/>
   <path d="m68.7,41.6c1.5-.6 3.6-1 6.1-1" fill="none" stroke="#000" stroke-linecap="round" stroke-linejoin="round" stroke-width=".25"/>
   <path d="m56.7 201.1v7.798" fill="none" stroke="#000" stroke-linecap="round" stroke-linejoin="round" stroke-width=".25"/>
   <path d="m67.8,89.7-.4-8.5c-.6-.2-.9.3-1,1.6v6.9" fill="none" stroke="#000" stroke-linecap="round" stroke-linejoin="round" stroke-width=".25"/>
   <path d="m45.8,107.9 1.3.3 7.8-9.4-.9-.9" fill="none" stroke="#000" stroke-linecap="round" stroke-linejoin="round" stroke-width=".25"/>
   <path d="m66.4 89.7h1.4" fill="none" stroke="#000" stroke-linecap="round" stroke-linejoin="round" stroke-width=".25"/>
   <path d="m66.4,98v4.2h2l-.2-4" fill="none" stroke="#000" stroke-linecap="round" stroke-linejoin="round" stroke-width=".25"/>
   <path d="m66.4 98 1.8 0.2" fill="none" stroke="#000" stroke-linecap="round" stroke-linejoin="round" stroke-width=".25"/>
   <path d="m66.4 89.7v8.3" fill="none" stroke="#000" stroke-linecap="round" stroke-linejoin="round" stroke-width=".25"/>
   <path d="m58.2,120.8c-.1-11.1-.2-17.8-.2-20.199-.1-2.4.1-5.001.4-8.001" fill="none" stroke="#000" stroke-linecap="round" stroke-linejoin="round" stroke-width=".25"/>
   <path d="m68.2,98.2-.39999-8.5" fill="none" stroke="#000" stroke-linecap="round" stroke-linejoin="round" stroke-width=".25"/>
   <path d="m50.1 147.5v-6.7" fill="none" stroke="#000" stroke-linecap="round" stroke-linejoin="round" stroke-width=".25"/>
   <path d="m6.1 124.9v3.701" fill="none" stroke="#000" stroke-linecap="round" stroke-linejoin="round" stroke-width=".25"/>
   <path d="m6 137.7v5.2" fill="none" stroke="#000" stroke-linecap="round" stroke-linejoin="round" stroke-width=".25"/>
   <path d="m22 155.1 0.1-7.401" fill="none" stroke="#000" stroke-linecap="round" stroke-linejoin="round" stroke-width=".25"/>
   <path d="m6.1 128.6-0.1 9.099" fill="none" stroke="#000" stroke-linecap="round" stroke-linejoin="round" stroke-width=".25"/>
   <path d="m22.1 147.7-16.1-10" fill="none" stroke="#000" stroke-linecap="round" stroke-linejoin="round" stroke-width=".25"/>
   <path d="m49.3,190.9 2.8-23.3c.1-.301.3-.4.7-.301 .3.101.4.4.4.801v13.8" fill="none" stroke="#000" stroke-linecap="round" stroke-linejoin="round" stroke-width=".25"/>
   <path d="m49.6,176c.3-2 .4-5.6.5-10.8" fill="none" stroke="#000" stroke-linecap="round" stroke-linejoin="round" stroke-width=".25"/>
   <path d="m50 193.5-0.7-2.6" fill="none" stroke="#000" stroke-linecap="round" stroke-linejoin="round" stroke-width=".25"/>
   <path d="m51.6 201.5 1.6-1.5" fill="none" stroke="#000" stroke-linecap="round" stroke-linejoin="round" stroke-width=".25"/>
   <path d="m50.4 202.6v-4.101" fill="none" stroke="#000" stroke-linecap="round" stroke-linejoin="round" stroke-width=".25"/>
   <path d="m51.6 201.5-1.2 1.101" fill="none" stroke="#000" stroke-linecap="round" stroke-linejoin="round" stroke-width=".25"/>
   <path d="m50.4,202.601c-.3.6-.7,0-1.2-1.701-.5-1.799-.5-5.199.1-9.999" fill="none" stroke="#000" stroke-linecap="round" stroke-linejoin="round" stroke-width=".25"/>
   <path d="m53.3 201.1-0.7 3.298-1-2.899" fill="none" stroke="#000" stroke-linecap="round" stroke-linejoin="round" stroke-width=".25"/>
   <path d="m53.2,200 .1,1.101" fill="none" stroke="#000" stroke-linecap="round" stroke-linejoin="round" stroke-width=".25"/>
   <path d="m53.3 201.1h3.4" fill="none" stroke="#000" stroke-linecap="round" stroke-linejoin="round" stroke-width=".25"/>
   <path d="m53.2 192.2v7.8" fill="none" stroke="#000" stroke-linecap="round" stroke-linejoin="round" stroke-width=".25"/>
   <path d="m50.4 198.5 2.8-6.3" fill="none" stroke="#000" stroke-linecap="round" stroke-linejoin="round" stroke-width=".25"/>
   <path d="m61.6 186.6v15.099" fill="none" stroke="#000" stroke-linecap="round" stroke-linejoin="round" stroke-width=".25"/>
   <path d="m50.4,198.5-.4-5" fill="none" stroke="#000" stroke-linecap="round" stroke-linejoin="round" stroke-width=".25"/>
   <path d="m56.7,201.101v-14.5c0-3.601.3-7 .9-10.2" fill="none" stroke="#000" stroke-linecap="round" stroke-linejoin="round" stroke-width=".25"/>
   <path d="m53.2 181.9-3.2 11.6" fill="none" stroke="#000" stroke-linecap="round" stroke-linejoin="round" stroke-width=".25"/>
   <path d="m60.7,176.9c.5,2.6.8,5.899.9,9.7" fill="none" stroke="#000" stroke-linecap="round" stroke-linejoin="round" stroke-width=".25"/>
   <path d="m53.2 181.9v10.3" fill="none" stroke="#000" stroke-linecap="round" stroke-linejoin="round" stroke-width=".25"/>
   <path d="m63.3 164.7c-1 6.7-1.6 14-1.7 21.9" fill="none" stroke="#000" stroke-linecap="round" stroke-linejoin="round" stroke-width=".25"/>
   <path d="m50.1,165.2c.1-4.7.1-10.5 0-17.7" fill="none" stroke="#000" stroke-linecap="round" stroke-linejoin="round" stroke-width=".25"/>
   <path d="m22.1 147.7 28 17.5" fill="none" stroke="#000" stroke-linecap="round" stroke-linejoin="round" stroke-width=".25"/>
   <path d="m58.2 124.2c2.5 7.3 3.4 21.3 2.7 42" fill="none" stroke="#000" stroke-linecap="round" stroke-linejoin="round" stroke-width=".25"/>
   <path d="m6.1 128.6 44 18.899" fill="none" stroke="#000" stroke-linecap="round" stroke-linejoin="round" stroke-width=".25"/>
   <path d="m61.5 209.9h-4.8" fill="none" stroke="#000" stroke-linecap="round" stroke-linejoin="round" stroke-width=".25"/>
   <path d="m88.1 208.9h4.7" fill="none" stroke="#000" stroke-linecap="round" stroke-linejoin="round" stroke-width=".25"/>
   <path d="m74.8,17.3c-3.1,2.7-5,10.101-6,22.2v.5c0,.6-.1,1.1-.1,1.6v.2c-.1,1-.2,2.101-.2,3.2-.2,3.2-.5,10.5-.7,21.9-.9,2-2.5,5.3-4.9,10-2,4.399-3.3,8.199-3.9,11.3-.2,1.5-.5,2.899-.6,4.399l-4.4,5.301-8.2,10-2.2,2.7 2.2,6.3 12.4,3.899v3.4l-5.8,14.2c-.5,1.399-1.2,2.2-2.3,2.399-.6,0-1.2-.1-2-.399l-42-15.5-.5-.2c-3.3-1.2-5-.1-5.1,3.4 .2,4.699 1.6,9.3 4.5,14.1l1,.7 16,12.2 27.6,20.901-8.2,34.899 2.4,6.701 12.513,1.163 .388-9.868 .105,1.111c.4,1.9 1.1,4.651 2.3,5.951 1.3-1.3 2.1-4.15 2.3-5.951 0,0 .042-.444.095-1.107s.1-7.199.1-7.199h.6l.3,2.4 .4,3.6 .4,3.699h10.1l.3-3.699 .3-3.6 .2-2.4h1.2l.1,2.4 .4,3.6 .2,3.699h10.1l.5-3.699 .4-3.6 .2-2.4h.699l.1,7.199 .2,9.9c.1,1.801.9,4.651 2.3,5.951 1.1-1.3 1.9-4.051 2.2-5.951l13-1.199 2.4-6.701-8.3-34.899 27.7-20.899 15.9-12.2 1-.7c2.8-4.8 4.3-9.4 4.5-14.1-.1-3.5-1.8-4.601-5.1-3.4l-.4.2-42.1,15.5c-.7.3-1.4.399-1.9.399-1.1-.199-1.9-1-2.3-2.399l-5.9-14.2v-3.4l12.5-3.899 2.2-6.3-2.2-2.7-8.2-10-4.4-5.302c-.2-1.5-.4-2.9-.7-4.4-.6-3.101-1.9-6.9-3.9-11.3-2.3-4.7-3.9-8-4.8-10-.3-11.4-.6-18.7-.7-21.9-.1-1.1-.2-2.2-.2-3.2v-.2c-.1-.5-.1-1-.1-1.6-.1-.1-.1-.3-.1-.5-.9-12.1-2.9-19.5-5.9-22.2" fill="none" stroke="#000" stroke-linecap="round" stroke-linejoin="round"/>
   <path d="m74.8 0.5v16.8" fill="none" stroke="#000" stroke-linecap="round" stroke-linejoin="round"/>
  </g>
 </switch>
</svg>
