<?xml version='1.0' encoding='utf-8'?>
<svg xmlns="http://www.w3.org/2000/svg" id="svg5387" version="1.1" viewBox="0 0 647.39526 793.75" height="793.75mm"
     width="647.39526mm">
    <defs id="defs5381"/>
    <metadata id="metadata5384"></metadata>
    <g transform="translate(0.06545421,-14.390594)" id="layer1">
        <path id="path5443"
              d="m 328.58614,14.390633 c -19.02807,-0.03961 -38.15693,29.984377 -58.42617,90.190787 v -8.232393 c -6.12428,87.203553 -9.12908,165.440983 -9.94617,235.082203 l -103.24333,85.4991 v -7.29682 c 0,-10.88276 -12.16043,-19.64461 -27.26547,-19.64461 -15.10504,0 -27.26547,8.76185 -27.26547,19.64461 v 52.45486 L 16.319818,533.40658 3.6005241,589.10088 C -10.314618,641.66529 19.637088,618.71868 22.879764,616.26545 130.66361,534.72384 210.00946,488.25646 263.71313,491.70623 c 3.40142,64.38515 8.71424,144.34255 14.23277,183.80639 l -94.02188,79.32434 -1.49665,39.95109 107.13559,-52.66429 c 3.76053,16.96403 6.91227,27.04302 8.67425,30.40712 25.8632,49.37932 21.52942,45.43533 42.04091,0.33021 1.57203,-3.457 4.69988,-12.74104 8.65742,-28.02072 l 104.40518,51.31901 -1.49819,-39.95108 -89.29038,-75.33281 c 6.91425,-38.80068 14.07851,-119.09574 19.51465,-183.5954 54.58259,-4.89373 133.35686,39.88647 237.4426,115.5258 25.95181,18.87896 27.64025,2.26818 27.82041,-14.0417 l -14.60577,-63.95873 -83.09125,-68.80957 v -56.9815 c 0,-10.54004 -12.1604,-19.02549 -27.26545,-19.02549 -15.10504,0 -27.26545,8.48545 -27.26545,19.02549 v 11.82339 l -104.1652,-86.2603 C 391.80525,266.45169 390.61603,189.92953 386.40848,104.58142 366.54259,44.53334 347.6142,14.430215 328.58614,14.390633 Z"
              style="fill:#000000;fill-rule:evenodd;stroke-width:0.900147"/>
    </g>
</svg>